<svg width="200" height="200" viewBox="0 0 200 200" fill="none" xmlns="http://www.w3.org/2000/svg">
<rect width="200" height="200" rx="100" fill="white"/>
<g clip-path="url(#clip0_9_12)">
<path d="M155.418 73.2165C153.587 72.5934 151.741 72.0161 149.881 71.4852C150.194 70.2185 150.481 68.9672 150.737 67.7378C154.928 47.5505 152.188 31.2872 142.829 25.9325C133.857 20.7992 119.182 26.1518 104.362 38.9498C102.901 40.2134 101.473 41.5134 100.079 42.8485C99.1454 41.9607 98.1954 41.0901 97.2294 40.2372C81.6971 26.5532 66.1285 20.7858 56.7801 26.1558C47.8153 31.3052 45.1607 46.5938 48.934 65.7258C49.3094 67.6207 49.7332 69.5057 50.2051 71.3792C48.0014 72.0005 45.8749 72.6618 43.8398 73.3658C25.6294 79.6658 14 89.5385 14 99.7792C14 110.356 26.4847 120.965 45.4516 127.397C46.9893 127.917 48.5398 128.398 50.1017 128.841C49.5944 130.858 49.1441 132.89 48.7512 134.933C45.154 153.733 47.9631 168.66 56.9037 173.777C66.1379 179.061 81.6366 173.63 96.7275 160.54C97.9513 159.476 99.148 158.381 100.317 157.258C101.827 158.704 103.377 160.107 104.966 161.467C119.585 173.949 134.022 178.989 142.954 173.858C152.179 168.559 155.178 152.523 151.285 133.013C150.978 131.484 150.634 129.963 150.254 128.451C151.342 128.131 152.41 127.802 153.452 127.459C173.17 120.977 185.999 110.497 185.999 99.7792C185.999 89.5012 173.994 79.5618 155.418 73.2165V73.2165ZM151.141 120.539C150.2 120.848 149.236 121.146 148.252 121.436C146.075 114.598 143.138 107.327 139.543 99.8145C142.973 92.4812 145.798 85.3032 147.913 78.5098C149.673 79.0152 151.38 79.5478 153.026 80.1098C168.943 85.5472 178.652 93.5852 178.652 99.7792C178.652 106.377 168.166 114.941 151.141 120.539V120.539ZM144.077 134.429C145.798 143.055 146.044 150.855 144.903 156.953C143.88 162.433 141.82 166.085 139.272 167.549C133.852 170.662 122.26 166.615 109.758 155.941C108.281 154.676 106.838 153.371 105.434 152.027C110.281 146.768 115.124 140.654 119.851 133.863C128.166 133.131 136.022 131.934 143.146 130.3C143.489 131.669 143.799 133.045 144.077 134.429V134.429ZM72.6383 167.011C67.3426 168.866 63.1246 168.919 60.5748 167.461C55.1494 164.356 52.894 152.37 55.9705 136.293C56.3362 134.393 56.7549 132.503 57.2262 130.627C64.2714 132.173 72.0699 133.285 80.4044 133.956C85.164 140.601 90.1472 146.708 95.1695 152.056C94.1022 153.081 93.0096 154.079 91.8928 155.051C85.2191 160.839 78.5319 164.945 72.6383 167.011V167.011ZM47.8287 120.499C39.4418 117.654 32.5154 113.957 27.768 109.923C23.5016 106.299 21.3483 102.699 21.3483 99.7792C21.3483 93.5645 30.6853 85.6378 46.2586 80.2505C48.1485 79.5972 50.1265 78.9805 52.1791 78.4018C54.3318 85.3485 57.155 92.6118 60.562 99.9565C57.1106 107.41 54.2471 114.789 52.0736 121.818C50.648 121.413 49.2326 120.973 47.8287 120.499V120.499ZM56.1452 64.3252C52.9128 47.9338 55.0594 35.5692 60.4619 32.4658C66.2158 29.1605 78.9397 33.8732 92.351 45.6892C93.2255 46.4614 94.0859 47.2493 94.9316 48.0525C89.9343 53.3772 84.9967 59.4392 80.2795 66.0445C72.1901 66.7885 64.4468 67.9832 57.3277 69.5838C56.889 67.8413 56.4947 66.0881 56.1452 64.3258V64.3252ZM130.338 82.5038C128.656 79.6218 126.912 76.776 125.107 73.9685C130.595 74.6572 135.853 75.5712 140.791 76.6885C139.309 81.4032 137.461 86.3318 135.286 91.3852C133.697 88.3923 132.047 85.4313 130.338 82.5038V82.5038ZM100.082 53.2632C103.471 56.9065 106.865 60.9738 110.204 65.3872C103.431 65.0698 96.6477 65.0685 89.8751 65.3832C93.217 61.0105 96.6402 56.9485 100.082 53.2632ZM69.6323 82.5538C67.9448 85.4577 66.3258 88.4003 64.7767 91.3792C62.6375 86.3438 60.8066 81.3925 59.3117 76.6112C64.219 75.5218 69.4522 74.6312 74.9052 73.9552C73.08 76.7798 71.3219 79.6466 69.6323 82.5532V82.5538ZM75.0617 126.122C69.4281 125.498 64.1162 124.653 59.2102 123.593C60.7287 118.727 62.5998 113.67 64.7854 108.527C66.3407 111.508 67.9664 114.452 69.6612 117.357C71.404 120.344 73.2087 123.269 75.0617 126.122ZM100.285 146.809C96.8021 143.081 93.3286 138.956 89.9363 134.52C93.2298 134.648 96.5871 134.713 99.9996 134.713C103.505 134.713 106.971 134.635 110.382 134.485C107.033 139.001 103.651 143.131 100.285 146.809ZM135.355 108.264C137.655 113.464 139.592 118.494 141.131 123.277C136.144 124.407 130.76 125.316 125.087 125.991C126.905 123.132 128.665 120.236 130.367 117.307C132.097 114.33 133.76 111.315 135.355 108.264V108.264ZM124.002 113.665C121.397 118.155 118.645 122.561 115.751 126.875C110.509 127.243 105.255 127.426 99.9996 127.423C94.6468 127.423 89.4404 127.258 84.4269 126.935C81.4574 122.632 78.653 118.218 76.0198 113.705H76.0205C73.3996 109.215 70.9516 104.627 68.6816 99.9532C70.9458 95.2778 73.3864 90.6885 75.9983 86.1952L75.9976 86.1958C78.6085 81.7013 81.3905 77.3068 84.3376 73.0218C89.4525 72.6378 94.6978 72.4378 99.9989 72.4378H99.9996C105.325 72.4378 110.577 72.6398 115.69 73.0265C118.608 77.3051 121.372 81.6845 123.978 86.1565C126.599 90.64 129.071 95.2068 131.393 99.8498C129.095 104.54 126.63 109.148 124.002 113.665V113.665ZM139.16 32.2485C144.919 35.5445 147.159 48.8358 143.54 66.2658C143.309 67.3778 143.05 68.5105 142.768 69.6592C135.631 68.0245 127.882 66.8092 119.769 66.0538C115.043 59.3758 110.146 53.3045 105.23 48.0485C106.518 46.8162 107.838 45.6158 109.186 44.4485C121.884 33.4838 133.752 29.1545 139.16 32.2485V32.2485ZM99.9996 84.5392C108.482 84.5392 115.359 91.3625 115.359 99.7792C115.359 108.196 108.482 115.019 99.9996 115.019C91.5172 115.019 84.6406 108.196 84.6406 99.7792C84.6406 91.3625 91.5172 84.5392 99.9996 84.5392V84.5392Z" fill="#4B6BFB"/>
</g>
<defs>
<clipPath id="clip0_9_12">
<rect width="172" height="152" fill="white" transform="translate(14 24)"/>
</clipPath>
</defs>
</svg>
